<mxfile host="Electron" agent="Mozilla/5.0 (Windows NT 10.0; Win64; x64) AppleWebKit/537.36 (KHTML, like Gecko) draw.io/24.7.17 Chrome/128.0.6613.36 Electron/32.0.1 Safari/537.36" version="24.7.17">
  <diagram name="페이지-1" id="_kRauo38ytjNkWm1h_xl">
    <mxGraphModel dx="819" dy="478" grid="1" gridSize="10" guides="1" tooltips="1" connect="1" arrows="1" fold="1" page="1" pageScale="1" pageWidth="827" pageHeight="1169" math="0" shadow="0">
      <root>
        <mxCell id="0" />
        <mxCell id="1" parent="0" />
        <mxCell id="vh4vlK0gLDQnyJQ0xDr6-21" value="" style="rounded=0;whiteSpace=wrap;html=1;" vertex="1" parent="1">
          <mxGeometry x="35" y="310" width="715" height="280" as="geometry" />
        </mxCell>
        <mxCell id="vh4vlK0gLDQnyJQ0xDr6-20" value="" style="rounded=0;whiteSpace=wrap;html=1;" vertex="1" parent="1">
          <mxGeometry x="60" y="340" width="660" height="220" as="geometry" />
        </mxCell>
        <mxCell id="vh4vlK0gLDQnyJQ0xDr6-17" value="" style="endArrow=none;dashed=1;html=1;dashPattern=1 3;strokeWidth=2;rounded=0;" edge="1" parent="1">
          <mxGeometry width="50" height="50" relative="1" as="geometry">
            <mxPoint x="600" y="520" as="sourcePoint" />
            <mxPoint x="600.29" y="400" as="targetPoint" />
          </mxGeometry>
        </mxCell>
        <mxCell id="vh4vlK0gLDQnyJQ0xDr6-14" value="" style="endArrow=none;dashed=1;html=1;dashPattern=1 3;strokeWidth=2;rounded=0;" edge="1" parent="1">
          <mxGeometry width="50" height="50" relative="1" as="geometry">
            <mxPoint x="439.79999999999995" y="520" as="sourcePoint" />
            <mxPoint x="440.09000000000003" y="400" as="targetPoint" />
          </mxGeometry>
        </mxCell>
        <mxCell id="vh4vlK0gLDQnyJQ0xDr6-7" value="" style="endArrow=none;dashed=1;html=1;dashPattern=1 3;strokeWidth=2;rounded=0;" edge="1" parent="1">
          <mxGeometry width="50" height="50" relative="1" as="geometry">
            <mxPoint x="279.71" y="521" as="sourcePoint" />
            <mxPoint x="280" y="401" as="targetPoint" />
          </mxGeometry>
        </mxCell>
        <mxCell id="vh4vlK0gLDQnyJQ0xDr6-4" value="" style="endArrow=none;dashed=1;html=1;dashPattern=1 3;strokeWidth=2;rounded=0;" edge="1" parent="1">
          <mxGeometry width="50" height="50" relative="1" as="geometry">
            <mxPoint x="119.71" y="520" as="sourcePoint" />
            <mxPoint x="120" y="400" as="targetPoint" />
          </mxGeometry>
        </mxCell>
        <mxCell id="vh4vlK0gLDQnyJQ0xDr6-2" value="" style="endArrow=classic;html=1;rounded=0;endFill=1;" edge="1" parent="1">
          <mxGeometry width="50" height="50" relative="1" as="geometry">
            <mxPoint x="120" y="520" as="sourcePoint" />
            <mxPoint x="670" y="520" as="targetPoint" />
          </mxGeometry>
        </mxCell>
        <mxCell id="vh4vlK0gLDQnyJQ0xDr6-3" value="" style="ellipse;whiteSpace=wrap;html=1;aspect=fixed;" vertex="1" parent="1">
          <mxGeometry x="115" y="515" width="10" height="10" as="geometry" />
        </mxCell>
        <mxCell id="vh4vlK0gLDQnyJQ0xDr6-5" value="&lt;span style=&quot;background-color: rgb(0, 255, 255);&quot;&gt;start_date&lt;/span&gt;&lt;div&gt;2025-04-07&lt;/div&gt;" style="text;strokeColor=none;align=center;fillColor=none;html=1;verticalAlign=middle;whiteSpace=wrap;rounded=0;" vertex="1" parent="1">
          <mxGeometry x="80" y="370" width="80" height="30" as="geometry" />
        </mxCell>
        <mxCell id="vh4vlK0gLDQnyJQ0xDr6-8" value="" style="ellipse;whiteSpace=wrap;html=1;aspect=fixed;" vertex="1" parent="1">
          <mxGeometry x="275" y="516" width="10" height="10" as="geometry" />
        </mxCell>
        <mxCell id="vh4vlK0gLDQnyJQ0xDr6-11" value="&lt;div&gt;2025-04-08&lt;/div&gt;" style="text;strokeColor=none;align=center;fillColor=none;html=1;verticalAlign=middle;whiteSpace=wrap;rounded=0;" vertex="1" parent="1">
          <mxGeometry x="240" y="380" width="80" height="20" as="geometry" />
        </mxCell>
        <mxCell id="vh4vlK0gLDQnyJQ0xDr6-12" value="&lt;font style=&quot;font-size: 11px;&quot;&gt;DAG RUN #1&lt;/font&gt;&lt;div style=&quot;font-size: 11px;&quot;&gt;&lt;font style=&quot;font-size: 11px;&quot;&gt;schedule_interval : &lt;b&gt;&lt;font color=&quot;#ff0000&quot;&gt;( 0 6 * * * )&lt;/font&gt;&lt;/b&gt;&lt;/font&gt;&lt;/div&gt;&lt;div style=&quot;font-size: 11px;&quot;&gt;&lt;font color=&quot;#1a1a1a&quot; style=&quot;font-size: 11px;&quot;&gt;execution_date : 2025-04-07&lt;/font&gt;&lt;/div&gt;&lt;div style=&quot;font-size: 11px;&quot;&gt;&lt;font color=&quot;#1a1a1a&quot; style=&quot;font-size: 11px;&quot;&gt;&lt;u&gt;run : 2025-04-08 06:00&lt;/u&gt;&lt;/font&gt;&lt;/div&gt;&lt;div style=&quot;font-size: 11px;&quot;&gt;&lt;font style=&quot;font-size: 11px;&quot;&gt;&lt;b style=&quot;color: rgb(26, 26, 26); background-color: rgb(128, 255, 0);&quot;&gt;OK&lt;/b&gt;&lt;b&gt;&lt;font color=&quot;#ff0000&quot;&gt;&lt;br&gt;&lt;/font&gt;&lt;/b&gt;&lt;/font&gt;&lt;/div&gt;" style="rounded=1;whiteSpace=wrap;html=1;" vertex="1" parent="1">
          <mxGeometry x="320" y="430" width="160" height="70" as="geometry" />
        </mxCell>
        <mxCell id="vh4vlK0gLDQnyJQ0xDr6-13" value="" style="ellipse;whiteSpace=wrap;html=1;aspect=fixed;" vertex="1" parent="1">
          <mxGeometry x="435" y="515" width="10" height="10" as="geometry" />
        </mxCell>
        <mxCell id="vh4vlK0gLDQnyJQ0xDr6-15" value="&lt;div&gt;2025-04-09&lt;/div&gt;" style="text;strokeColor=none;align=center;fillColor=none;html=1;verticalAlign=middle;whiteSpace=wrap;rounded=0;" vertex="1" parent="1">
          <mxGeometry x="400" y="380" width="80" height="20" as="geometry" />
        </mxCell>
        <mxCell id="vh4vlK0gLDQnyJQ0xDr6-16" value="&lt;font style=&quot;font-size: 11px;&quot;&gt;DAG RUN #2&lt;/font&gt;&lt;div style=&quot;font-size: 11px;&quot;&gt;&lt;font style=&quot;font-size: 11px;&quot;&gt;schedule_interval : &lt;b&gt;&lt;font color=&quot;#ff0000&quot;&gt;( 0 6 * * * )&lt;/font&gt;&lt;/b&gt;&lt;/font&gt;&lt;/div&gt;&lt;div style=&quot;font-size: 11px;&quot;&gt;&lt;font style=&quot;font-size: 11px;&quot;&gt;&lt;span style=&quot;color: rgb(26, 26, 26);&quot;&gt;execution_date : 2025-04-08&lt;/span&gt;&lt;b&gt;&lt;font color=&quot;#ff0000&quot;&gt;&lt;br&gt;&lt;/font&gt;&lt;/b&gt;&lt;/font&gt;&lt;/div&gt;&lt;div style=&quot;font-size: 11px;&quot;&gt;&lt;font style=&quot;font-size: 11px;&quot;&gt;&lt;span style=&quot;color: rgb(26, 26, 26);&quot;&gt;&lt;u&gt;run : 2025-04-09 06:00&lt;/u&gt;&lt;/span&gt;&lt;/font&gt;&lt;/div&gt;&lt;div style=&quot;font-size: 11px;&quot;&gt;&lt;font style=&quot;font-size: 11px;&quot;&gt;&lt;b style=&quot;color: rgb(26, 26, 26); background-color: rgb(128, 255, 0);&quot;&gt;OK&lt;/b&gt;&lt;b&gt;&lt;font color=&quot;#ff0000&quot;&gt;&lt;br&gt;&lt;/font&gt;&lt;/b&gt;&lt;/font&gt;&lt;/div&gt;" style="rounded=1;whiteSpace=wrap;html=1;" vertex="1" parent="1">
          <mxGeometry x="480" y="430" width="160" height="70" as="geometry" />
        </mxCell>
        <mxCell id="vh4vlK0gLDQnyJQ0xDr6-18" value="" style="ellipse;whiteSpace=wrap;html=1;aspect=fixed;" vertex="1" parent="1">
          <mxGeometry x="595" y="515" width="10" height="10" as="geometry" />
        </mxCell>
        <mxCell id="vh4vlK0gLDQnyJQ0xDr6-19" value="&lt;div&gt;2025-04-10&lt;/div&gt;" style="text;strokeColor=none;align=center;fillColor=none;html=1;verticalAlign=middle;whiteSpace=wrap;rounded=0;" vertex="1" parent="1">
          <mxGeometry x="560" y="380" width="80" height="20" as="geometry" />
        </mxCell>
        <mxCell id="vh4vlK0gLDQnyJQ0xDr6-22" value="" style="rounded=0;whiteSpace=wrap;html=1;" vertex="1" parent="1">
          <mxGeometry x="35" y="590" width="715" height="280" as="geometry" />
        </mxCell>
        <mxCell id="vh4vlK0gLDQnyJQ0xDr6-23" value="" style="rounded=0;whiteSpace=wrap;html=1;" vertex="1" parent="1">
          <mxGeometry x="60" y="620" width="660" height="220" as="geometry" />
        </mxCell>
        <mxCell id="vh4vlK0gLDQnyJQ0xDr6-24" value="" style="endArrow=none;dashed=1;html=1;dashPattern=1 3;strokeWidth=2;rounded=0;" edge="1" parent="1">
          <mxGeometry width="50" height="50" relative="1" as="geometry">
            <mxPoint x="600" y="800" as="sourcePoint" />
            <mxPoint x="600.29" y="680" as="targetPoint" />
          </mxGeometry>
        </mxCell>
        <mxCell id="vh4vlK0gLDQnyJQ0xDr6-25" value="" style="endArrow=none;dashed=1;html=1;dashPattern=1 3;strokeWidth=2;rounded=0;" edge="1" parent="1">
          <mxGeometry width="50" height="50" relative="1" as="geometry">
            <mxPoint x="439.79999999999995" y="800" as="sourcePoint" />
            <mxPoint x="440.09000000000003" y="680" as="targetPoint" />
          </mxGeometry>
        </mxCell>
        <mxCell id="vh4vlK0gLDQnyJQ0xDr6-26" value="" style="endArrow=none;dashed=1;html=1;dashPattern=1 3;strokeWidth=2;rounded=0;" edge="1" parent="1">
          <mxGeometry width="50" height="50" relative="1" as="geometry">
            <mxPoint x="279.71" y="801" as="sourcePoint" />
            <mxPoint x="280" y="681" as="targetPoint" />
          </mxGeometry>
        </mxCell>
        <mxCell id="vh4vlK0gLDQnyJQ0xDr6-27" value="" style="endArrow=none;dashed=1;html=1;dashPattern=1 3;strokeWidth=2;rounded=0;" edge="1" parent="1">
          <mxGeometry width="50" height="50" relative="1" as="geometry">
            <mxPoint x="119.70999999999998" y="800" as="sourcePoint" />
            <mxPoint x="120" y="680" as="targetPoint" />
          </mxGeometry>
        </mxCell>
        <mxCell id="vh4vlK0gLDQnyJQ0xDr6-29" value="" style="endArrow=classic;html=1;rounded=0;endFill=1;" edge="1" parent="1">
          <mxGeometry width="50" height="50" relative="1" as="geometry">
            <mxPoint x="120" y="800" as="sourcePoint" />
            <mxPoint x="670" y="800" as="targetPoint" />
          </mxGeometry>
        </mxCell>
        <mxCell id="vh4vlK0gLDQnyJQ0xDr6-30" value="" style="ellipse;whiteSpace=wrap;html=1;aspect=fixed;" vertex="1" parent="1">
          <mxGeometry x="115" y="795" width="10" height="10" as="geometry" />
        </mxCell>
        <mxCell id="vh4vlK0gLDQnyJQ0xDr6-31" value="&lt;span style=&quot;background-color: rgb(0, 255, 255);&quot;&gt;start_date&lt;/span&gt;&lt;div&gt;2025-04-07&lt;/div&gt;" style="text;strokeColor=none;align=center;fillColor=none;html=1;verticalAlign=middle;whiteSpace=wrap;rounded=0;" vertex="1" parent="1">
          <mxGeometry x="80" y="650" width="80" height="30" as="geometry" />
        </mxCell>
        <mxCell id="vh4vlK0gLDQnyJQ0xDr6-32" value="" style="ellipse;whiteSpace=wrap;html=1;aspect=fixed;" vertex="1" parent="1">
          <mxGeometry x="275" y="796" width="10" height="10" as="geometry" />
        </mxCell>
        <mxCell id="vh4vlK0gLDQnyJQ0xDr6-34" value="&lt;font style=&quot;font-size: 11px;&quot;&gt;DAG RUN #1&lt;/font&gt;&lt;div style=&quot;font-size: 11px;&quot;&gt;&lt;font style=&quot;font-size: 11px;&quot;&gt;schedule_interval : &lt;b&gt;&lt;font color=&quot;#ff0000&quot;&gt;( 0 6 * * * )&lt;/font&gt;&lt;/b&gt;&lt;/font&gt;&lt;/div&gt;&lt;div style=&quot;font-size: 11px;&quot;&gt;&lt;font style=&quot;font-size: 11px;&quot;&gt;&lt;span style=&quot;color: rgb(26, 26, 26);&quot;&gt;execution_date : 2025-04-07&lt;/span&gt;&lt;b&gt;&lt;font color=&quot;#ff0000&quot;&gt;&lt;br&gt;&lt;/font&gt;&lt;/b&gt;&lt;/font&gt;&lt;/div&gt;&lt;div style=&quot;font-size: 11px;&quot;&gt;&lt;font style=&quot;font-size: 11px;&quot;&gt;&lt;span style=&quot;color: rgb(26, 26, 26);&quot;&gt;&lt;u&gt;run : 2025-04-08 06:00&lt;/u&gt;&lt;/span&gt;&lt;/font&gt;&lt;/div&gt;&lt;div style=&quot;font-size: 11px;&quot;&gt;&lt;font style=&quot;font-size: 11px;&quot;&gt;&lt;b style=&quot;color: rgb(26, 26, 26); background-color: rgb(128, 255, 0);&quot;&gt;OK&lt;/b&gt;&lt;b&gt;&lt;font color=&quot;#ff0000&quot;&gt;&lt;br&gt;&lt;/font&gt;&lt;/b&gt;&lt;/font&gt;&lt;/div&gt;" style="rounded=1;whiteSpace=wrap;html=1;" vertex="1" parent="1">
          <mxGeometry x="320" y="710" width="160" height="70" as="geometry" />
        </mxCell>
        <mxCell id="vh4vlK0gLDQnyJQ0xDr6-35" value="" style="ellipse;whiteSpace=wrap;html=1;aspect=fixed;" vertex="1" parent="1">
          <mxGeometry x="435" y="795" width="10" height="10" as="geometry" />
        </mxCell>
        <mxCell id="vh4vlK0gLDQnyJQ0xDr6-37" value="&lt;font style=&quot;font-size: 11px;&quot;&gt;DAG RUN #2&lt;/font&gt;&lt;div style=&quot;font-size: 11px;&quot;&gt;&lt;font style=&quot;font-size: 11px;&quot;&gt;schedule_interval : &lt;b&gt;&lt;font color=&quot;#ff0000&quot;&gt;( 0 6 * * * )&lt;/font&gt;&lt;/b&gt;&lt;/font&gt;&lt;/div&gt;&lt;div style=&quot;font-size: 11px;&quot;&gt;&lt;font style=&quot;font-size: 11px;&quot;&gt;&lt;span style=&quot;color: rgb(26, 26, 26);&quot;&gt;execution_date : 2025-04-08&lt;/span&gt;&lt;b&gt;&lt;font color=&quot;#ff0000&quot;&gt;&lt;br&gt;&lt;/font&gt;&lt;/b&gt;&lt;/font&gt;&lt;/div&gt;&lt;div style=&quot;font-size: 11px;&quot;&gt;&lt;font style=&quot;font-size: 11px;&quot;&gt;&lt;span style=&quot;color: rgb(26, 26, 26);&quot;&gt;&lt;u&gt;run : 2025-04-09 06:00&lt;/u&gt;&lt;/span&gt;&lt;/font&gt;&lt;/div&gt;&lt;div style=&quot;font-size: 11px;&quot;&gt;&lt;font style=&quot;font-size: 11px;&quot;&gt;&lt;b style=&quot;color: rgb(26, 26, 26); background-color: rgb(128, 255, 0);&quot;&gt;OK&lt;/b&gt;&lt;b&gt;&lt;font color=&quot;#ff0000&quot;&gt;&lt;br&gt;&lt;/font&gt;&lt;/b&gt;&lt;/font&gt;&lt;/div&gt;" style="rounded=1;whiteSpace=wrap;html=1;" vertex="1" parent="1">
          <mxGeometry x="480" y="710" width="160" height="70" as="geometry" />
        </mxCell>
        <mxCell id="vh4vlK0gLDQnyJQ0xDr6-38" value="" style="ellipse;whiteSpace=wrap;html=1;aspect=fixed;" vertex="1" parent="1">
          <mxGeometry x="595" y="795" width="10" height="10" as="geometry" />
        </mxCell>
        <mxCell id="vh4vlK0gLDQnyJQ0xDr6-40" value="&lt;span style=&quot;background-color: rgb(0, 255, 255);&quot;&gt;start_date&lt;/span&gt;&lt;div&gt;2025-04-08&lt;/div&gt;" style="text;strokeColor=none;align=center;fillColor=none;html=1;verticalAlign=middle;whiteSpace=wrap;rounded=0;" vertex="1" parent="1">
          <mxGeometry x="240" y="650" width="80" height="30" as="geometry" />
        </mxCell>
        <mxCell id="vh4vlK0gLDQnyJQ0xDr6-41" value="&lt;span style=&quot;background-color: rgb(0, 255, 255);&quot;&gt;start_date&lt;/span&gt;&lt;div&gt;2025-04-09&lt;/div&gt;" style="text;strokeColor=none;align=center;fillColor=none;html=1;verticalAlign=middle;whiteSpace=wrap;rounded=0;" vertex="1" parent="1">
          <mxGeometry x="400" y="650" width="80" height="30" as="geometry" />
        </mxCell>
        <mxCell id="vh4vlK0gLDQnyJQ0xDr6-42" value="&lt;span style=&quot;background-color: rgb(0, 255, 255);&quot;&gt;start_date&lt;/span&gt;&lt;div&gt;2025-04-10&lt;/div&gt;" style="text;strokeColor=none;align=center;fillColor=none;html=1;verticalAlign=middle;whiteSpace=wrap;rounded=0;" vertex="1" parent="1">
          <mxGeometry x="560" y="650" width="80" height="30" as="geometry" />
        </mxCell>
        <mxCell id="vh4vlK0gLDQnyJQ0xDr6-48" value="&lt;div style=&quot;font-size: 11px;&quot;&gt;&lt;font style=&quot;&quot; color=&quot;#1a1a1a&quot;&gt;이때는 DAG RUN 없음&lt;/font&gt;&lt;/div&gt;&lt;div style=&quot;font-size: 11px;&quot;&gt;&lt;font style=&quot;&quot; color=&quot;#1a1a1a&quot;&gt;start_date : 2025-04-07&lt;/font&gt;&lt;/div&gt;&lt;div style=&quot;font-size: 11px;&quot;&gt;&lt;font color=&quot;#1a1a1a&quot;&gt;execution_date : 2025-04-06&lt;/font&gt;&lt;/div&gt;&lt;div style=&quot;font-size: 11px;&quot;&gt;&lt;font color=&quot;#1a1a1a&quot;&gt;(execution_date &amp;lt;&amp;nbsp;&lt;/font&gt;&lt;span style=&quot;color: rgb(26, 26, 26); background-color: initial;&quot;&gt;start_date)&lt;/span&gt;&lt;/div&gt;" style="rounded=1;whiteSpace=wrap;html=1;sketch=1;curveFitting=1;jiggle=2;fillColor=#f8cecc;strokeColor=#b85450;" vertex="1" parent="1">
          <mxGeometry x="160" y="430" width="160" height="70" as="geometry" />
        </mxCell>
        <mxCell id="vh4vlK0gLDQnyJQ0xDr6-51" value="" style="rounded=0;whiteSpace=wrap;html=1;" vertex="1" parent="1">
          <mxGeometry x="36" y="1150" width="715" height="280" as="geometry" />
        </mxCell>
        <mxCell id="vh4vlK0gLDQnyJQ0xDr6-52" value="" style="rounded=0;whiteSpace=wrap;html=1;" vertex="1" parent="1">
          <mxGeometry x="61" y="1180" width="660" height="220" as="geometry" />
        </mxCell>
        <mxCell id="vh4vlK0gLDQnyJQ0xDr6-53" value="" style="endArrow=none;dashed=1;html=1;dashPattern=1 3;strokeWidth=2;rounded=0;" edge="1" parent="1">
          <mxGeometry width="50" height="50" relative="1" as="geometry">
            <mxPoint x="601" y="1360" as="sourcePoint" />
            <mxPoint x="601.29" y="1240" as="targetPoint" />
          </mxGeometry>
        </mxCell>
        <mxCell id="vh4vlK0gLDQnyJQ0xDr6-54" value="" style="endArrow=none;dashed=1;html=1;dashPattern=1 3;strokeWidth=2;rounded=0;" edge="1" parent="1">
          <mxGeometry width="50" height="50" relative="1" as="geometry">
            <mxPoint x="440.79999999999995" y="1360" as="sourcePoint" />
            <mxPoint x="441.09000000000003" y="1240" as="targetPoint" />
          </mxGeometry>
        </mxCell>
        <mxCell id="vh4vlK0gLDQnyJQ0xDr6-55" value="" style="endArrow=none;dashed=1;html=1;dashPattern=1 3;strokeWidth=2;rounded=0;" edge="1" parent="1">
          <mxGeometry width="50" height="50" relative="1" as="geometry">
            <mxPoint x="280.71" y="1361" as="sourcePoint" />
            <mxPoint x="281" y="1260" as="targetPoint" />
          </mxGeometry>
        </mxCell>
        <mxCell id="vh4vlK0gLDQnyJQ0xDr6-56" value="" style="endArrow=none;dashed=1;html=1;dashPattern=1 3;strokeWidth=2;rounded=0;" edge="1" parent="1">
          <mxGeometry width="50" height="50" relative="1" as="geometry">
            <mxPoint x="120.70999999999998" y="1360" as="sourcePoint" />
            <mxPoint x="121" y="1240" as="targetPoint" />
          </mxGeometry>
        </mxCell>
        <mxCell id="vh4vlK0gLDQnyJQ0xDr6-57" value="" style="endArrow=classic;html=1;rounded=0;endFill=1;" edge="1" parent="1">
          <mxGeometry width="50" height="50" relative="1" as="geometry">
            <mxPoint x="121" y="1360" as="sourcePoint" />
            <mxPoint x="671" y="1360" as="targetPoint" />
          </mxGeometry>
        </mxCell>
        <mxCell id="vh4vlK0gLDQnyJQ0xDr6-58" value="" style="ellipse;whiteSpace=wrap;html=1;aspect=fixed;" vertex="1" parent="1">
          <mxGeometry x="116" y="1355" width="10" height="10" as="geometry" />
        </mxCell>
        <mxCell id="vh4vlK0gLDQnyJQ0xDr6-60" value="" style="ellipse;whiteSpace=wrap;html=1;aspect=fixed;" vertex="1" parent="1">
          <mxGeometry x="276" y="1356" width="10" height="10" as="geometry" />
        </mxCell>
        <mxCell id="vh4vlK0gLDQnyJQ0xDr6-62" value="" style="ellipse;whiteSpace=wrap;html=1;aspect=fixed;" vertex="1" parent="1">
          <mxGeometry x="436" y="1355" width="10" height="10" as="geometry" />
        </mxCell>
        <mxCell id="vh4vlK0gLDQnyJQ0xDr6-64" value="" style="ellipse;whiteSpace=wrap;html=1;aspect=fixed;" vertex="1" parent="1">
          <mxGeometry x="596" y="1355" width="10" height="10" as="geometry" />
        </mxCell>
        <mxCell id="vh4vlK0gLDQnyJQ0xDr6-69" value="&lt;span style=&quot;background-color: rgb(0, 255, 255);&quot;&gt;start_date&lt;/span&gt;&lt;div&gt;2025-04-02(수)&lt;/div&gt;" style="text;strokeColor=none;align=center;fillColor=none;html=1;verticalAlign=middle;whiteSpace=wrap;rounded=0;" vertex="1" parent="1">
          <mxGeometry x="76" y="1210" width="90" height="30" as="geometry" />
        </mxCell>
        <mxCell id="vh4vlK0gLDQnyJQ0xDr6-74" value="&lt;div style=&quot;font-size: 11px;&quot;&gt;&lt;font style=&quot;&quot; color=&quot;#1a1a1a&quot;&gt;이때는 DAG RUN 없음&lt;/font&gt;&lt;/div&gt;&lt;div style=&quot;font-size: 11px;&quot;&gt;&lt;font style=&quot;&quot; color=&quot;#1a1a1a&quot;&gt;start_date : 2025-04-02&lt;/font&gt;&lt;/div&gt;&lt;div style=&quot;font-size: 11px;&quot;&gt;&lt;div&gt;&lt;font color=&quot;#1a1a1a&quot;&gt;execution_date : 2025-03-26&lt;/font&gt;&lt;/div&gt;&lt;div&gt;&lt;font color=&quot;#1a1a1a&quot;&gt;(execution_date &amp;lt;&amp;nbsp;&lt;/font&gt;&lt;span style=&quot;color: rgb(26, 26, 26); background-color: initial;&quot;&gt;start_date)&lt;/span&gt;&lt;/div&gt;&lt;/div&gt;" style="rounded=1;whiteSpace=wrap;html=1;sketch=1;curveFitting=1;jiggle=2;fillColor=#f8cecc;strokeColor=#b85450;" vertex="1" parent="1">
          <mxGeometry x="141" y="1270" width="160" height="70" as="geometry" />
        </mxCell>
        <mxCell id="vh4vlK0gLDQnyJQ0xDr6-75" value="&lt;font style=&quot;font-size: 11px;&quot;&gt;DAG RUN #1&lt;/font&gt;&lt;div style=&quot;font-size: 11px;&quot;&gt;&lt;font style=&quot;font-size: 11px;&quot;&gt;schedule_interval : &lt;b&gt;&lt;font color=&quot;#ff0000&quot;&gt;( 0 6 * * 3 )&lt;/font&gt;&lt;/b&gt;&lt;/font&gt;&lt;/div&gt;&lt;div style=&quot;font-size: 11px;&quot;&gt;&lt;font style=&quot;font-size: 11px;&quot;&gt;&lt;span style=&quot;color: rgb(26, 26, 26);&quot;&gt;execution_date : 2025-04-02&lt;/span&gt;&lt;b&gt;&lt;font color=&quot;#ff0000&quot;&gt;&lt;br&gt;&lt;/font&gt;&lt;/b&gt;&lt;/font&gt;&lt;/div&gt;&lt;div style=&quot;font-size: 11px;&quot;&gt;&lt;font style=&quot;font-size: 11px;&quot;&gt;&lt;span style=&quot;color: rgb(26, 26, 26);&quot;&gt;run : 2025-04-09 06:00&lt;/span&gt;&lt;/font&gt;&lt;/div&gt;&lt;div style=&quot;font-size: 11px;&quot;&gt;&lt;font style=&quot;font-size: 11px;&quot;&gt;&lt;b style=&quot;color: rgb(26, 26, 26); background-color: rgb(128, 255, 0);&quot;&gt;OK&lt;/b&gt;&lt;b&gt;&lt;font color=&quot;#ff0000&quot;&gt;&lt;br&gt;&lt;/font&gt;&lt;/b&gt;&lt;/font&gt;&lt;/div&gt;" style="rounded=1;whiteSpace=wrap;html=1;" vertex="1" parent="1">
          <mxGeometry x="301" y="1270" width="160" height="70" as="geometry" />
        </mxCell>
        <mxCell id="vh4vlK0gLDQnyJQ0xDr6-76" value="&lt;font style=&quot;font-size: 11px;&quot;&gt;DAG RUN #1&lt;/font&gt;&lt;div style=&quot;font-size: 11px;&quot;&gt;&lt;font style=&quot;font-size: 11px;&quot;&gt;schedule_interval : &lt;b&gt;&lt;font color=&quot;#ff0000&quot;&gt;( 0 6 * * 3 )&lt;/font&gt;&lt;/b&gt;&lt;/font&gt;&lt;/div&gt;&lt;div style=&quot;font-size: 11px;&quot;&gt;&lt;font style=&quot;font-size: 11px;&quot;&gt;&lt;span style=&quot;color: rgb(26, 26, 26);&quot;&gt;execution_date : 2025-04-09&lt;/span&gt;&lt;b&gt;&lt;font color=&quot;#ff0000&quot;&gt;&lt;br&gt;&lt;/font&gt;&lt;/b&gt;&lt;/font&gt;&lt;/div&gt;&lt;div style=&quot;font-size: 11px;&quot;&gt;&lt;font style=&quot;font-size: 11px;&quot;&gt;&lt;span style=&quot;color: rgb(26, 26, 26);&quot;&gt;run : 2025-04-16 06:00&lt;/span&gt;&lt;/font&gt;&lt;/div&gt;&lt;div style=&quot;font-size: 11px;&quot;&gt;&lt;font style=&quot;font-size: 11px;&quot;&gt;&lt;b style=&quot;color: rgb(26, 26, 26); background-color: rgb(128, 255, 0);&quot;&gt;OK&lt;/b&gt;&lt;b&gt;&lt;font color=&quot;#ff0000&quot;&gt;&lt;br&gt;&lt;/font&gt;&lt;/b&gt;&lt;/font&gt;&lt;/div&gt;" style="rounded=1;whiteSpace=wrap;html=1;" vertex="1" parent="1">
          <mxGeometry x="461" y="1270" width="160" height="70" as="geometry" />
        </mxCell>
        <mxCell id="vh4vlK0gLDQnyJQ0xDr6-95" value="&lt;span style=&quot;background-color: rgb(0, 255, 255);&quot;&gt;start_date&lt;/span&gt;&lt;div&gt;2025-04-09(수)&lt;/div&gt;" style="text;strokeColor=none;align=center;fillColor=none;html=1;verticalAlign=middle;whiteSpace=wrap;rounded=0;" vertex="1" parent="1">
          <mxGeometry x="236" y="1230" width="90" height="30" as="geometry" />
        </mxCell>
        <mxCell id="vh4vlK0gLDQnyJQ0xDr6-96" value="&lt;span style=&quot;background-color: rgb(0, 255, 255);&quot;&gt;start_date&lt;/span&gt;&lt;div&gt;2025-04-16(수)&lt;/div&gt;" style="text;strokeColor=none;align=center;fillColor=none;html=1;verticalAlign=middle;whiteSpace=wrap;rounded=0;" vertex="1" parent="1">
          <mxGeometry x="396" y="1210" width="90" height="30" as="geometry" />
        </mxCell>
        <mxCell id="vh4vlK0gLDQnyJQ0xDr6-97" value="&lt;span style=&quot;background-color: rgb(0, 255, 255);&quot;&gt;start_date&lt;/span&gt;&lt;div&gt;2025-04-23(수)&lt;/div&gt;" style="text;strokeColor=none;align=center;fillColor=none;html=1;verticalAlign=middle;whiteSpace=wrap;rounded=0;" vertex="1" parent="1">
          <mxGeometry x="556" y="1210" width="90" height="30" as="geometry" />
        </mxCell>
        <mxCell id="vh4vlK0gLDQnyJQ0xDr6-106" value="&lt;span style=&quot;background-color: rgb(255, 51, 255);&quot;&gt;&lt;font color=&quot;#ffffff&quot;&gt;&lt;b&gt;DAG코드 작성일&lt;/b&gt;&lt;/font&gt;&lt;/span&gt;" style="text;strokeColor=none;align=center;fillColor=none;html=1;verticalAlign=middle;whiteSpace=wrap;rounded=0;" vertex="1" parent="1">
          <mxGeometry x="230" y="360" width="100" height="20" as="geometry" />
        </mxCell>
        <mxCell id="vh4vlK0gLDQnyJQ0xDr6-110" value="&lt;span style=&quot;background-color: rgb(255, 51, 255);&quot;&gt;&lt;font color=&quot;#ffffff&quot;&gt;&lt;b&gt;DAG코드 작성일&lt;/b&gt;&lt;/font&gt;&lt;/span&gt;" style="text;strokeColor=none;align=center;fillColor=none;html=1;verticalAlign=middle;whiteSpace=wrap;rounded=0;" vertex="1" parent="1">
          <mxGeometry x="230" y="630" width="100" height="20" as="geometry" />
        </mxCell>
        <mxCell id="vh4vlK0gLDQnyJQ0xDr6-119" value="&lt;div style=&quot;font-size: 11px;&quot;&gt;&lt;font style=&quot;&quot; color=&quot;#1a1a1a&quot;&gt;이때는 DAG RUN 없음&lt;/font&gt;&lt;/div&gt;&lt;div style=&quot;font-size: 11px;&quot;&gt;&lt;font style=&quot;&quot; color=&quot;#1a1a1a&quot;&gt;start_date : 2025-04-07&lt;/font&gt;&lt;/div&gt;&lt;div style=&quot;font-size: 11px;&quot;&gt;&lt;font color=&quot;#1a1a1a&quot;&gt;execution_date : 2025-04-06&lt;/font&gt;&lt;/div&gt;&lt;div style=&quot;font-size: 11px;&quot;&gt;&lt;font color=&quot;#1a1a1a&quot;&gt;(execution_date &amp;lt;&amp;nbsp;&lt;/font&gt;&lt;span style=&quot;color: rgb(26, 26, 26); background-color: initial;&quot;&gt;start_date)&lt;/span&gt;&lt;/div&gt;" style="rounded=1;whiteSpace=wrap;html=1;sketch=1;curveFitting=1;jiggle=2;fillColor=#f8cecc;strokeColor=#b85450;" vertex="1" parent="1">
          <mxGeometry x="160" y="710" width="160" height="70" as="geometry" />
        </mxCell>
        <mxCell id="vh4vlK0gLDQnyJQ0xDr6-120" value="" style="rounded=0;whiteSpace=wrap;html=1;" vertex="1" parent="1">
          <mxGeometry x="35" y="870" width="715" height="280" as="geometry" />
        </mxCell>
        <mxCell id="vh4vlK0gLDQnyJQ0xDr6-121" value="" style="rounded=0;whiteSpace=wrap;html=1;" vertex="1" parent="1">
          <mxGeometry x="60" y="900" width="660" height="220" as="geometry" />
        </mxCell>
        <mxCell id="vh4vlK0gLDQnyJQ0xDr6-122" value="" style="endArrow=none;dashed=1;html=1;dashPattern=1 3;strokeWidth=2;rounded=0;" edge="1" parent="1">
          <mxGeometry width="50" height="50" relative="1" as="geometry">
            <mxPoint x="475" y="1080" as="sourcePoint" />
            <mxPoint x="475.28999999999996" y="960" as="targetPoint" />
          </mxGeometry>
        </mxCell>
        <mxCell id="vh4vlK0gLDQnyJQ0xDr6-123" value="" style="endArrow=none;dashed=1;html=1;dashPattern=1 3;strokeWidth=2;rounded=0;" edge="1" parent="1">
          <mxGeometry width="50" height="50" relative="1" as="geometry">
            <mxPoint x="296.79999999999995" y="1080" as="sourcePoint" />
            <mxPoint x="297.09000000000003" y="960" as="targetPoint" />
          </mxGeometry>
        </mxCell>
        <mxCell id="vh4vlK0gLDQnyJQ0xDr6-124" value="" style="endArrow=none;dashed=1;html=1;dashPattern=1 3;strokeWidth=2;rounded=0;" edge="1" parent="1">
          <mxGeometry width="50" height="50" relative="1" as="geometry">
            <mxPoint x="121.70999999999998" y="1081" as="sourcePoint" />
            <mxPoint x="122" y="961" as="targetPoint" />
          </mxGeometry>
        </mxCell>
        <mxCell id="vh4vlK0gLDQnyJQ0xDr6-126" value="" style="endArrow=classic;html=1;rounded=0;endFill=1;" edge="1" parent="1">
          <mxGeometry width="50" height="50" relative="1" as="geometry">
            <mxPoint x="120" y="1080" as="sourcePoint" />
            <mxPoint x="670" y="1080" as="targetPoint" />
          </mxGeometry>
        </mxCell>
        <mxCell id="vh4vlK0gLDQnyJQ0xDr6-129" value="" style="ellipse;whiteSpace=wrap;html=1;aspect=fixed;" vertex="1" parent="1">
          <mxGeometry x="117" y="1076" width="10" height="10" as="geometry" />
        </mxCell>
        <mxCell id="vh4vlK0gLDQnyJQ0xDr6-131" value="" style="ellipse;whiteSpace=wrap;html=1;aspect=fixed;" vertex="1" parent="1">
          <mxGeometry x="292" y="1075" width="10" height="10" as="geometry" />
        </mxCell>
        <mxCell id="vh4vlK0gLDQnyJQ0xDr6-133" value="" style="ellipse;whiteSpace=wrap;html=1;aspect=fixed;" vertex="1" parent="1">
          <mxGeometry x="470" y="1075" width="10" height="10" as="geometry" />
        </mxCell>
        <mxCell id="vh4vlK0gLDQnyJQ0xDr6-134" value="&lt;span style=&quot;background-color: rgb(0, 255, 255);&quot;&gt;start_date&lt;/span&gt;&lt;div&gt;2025-04-08&lt;/div&gt;" style="text;strokeColor=none;align=center;fillColor=none;html=1;verticalAlign=middle;whiteSpace=wrap;rounded=0;" vertex="1" parent="1">
          <mxGeometry x="82" y="930" width="80" height="30" as="geometry" />
        </mxCell>
        <mxCell id="vh4vlK0gLDQnyJQ0xDr6-135" value="&lt;span style=&quot;background-color: rgb(0, 255, 255);&quot;&gt;start_date&lt;/span&gt;&lt;div&gt;2025-04-09&lt;/div&gt;" style="text;strokeColor=none;align=center;fillColor=none;html=1;verticalAlign=middle;whiteSpace=wrap;rounded=0;" vertex="1" parent="1">
          <mxGeometry x="257" y="930" width="80" height="30" as="geometry" />
        </mxCell>
        <mxCell id="vh4vlK0gLDQnyJQ0xDr6-136" value="&lt;span style=&quot;background-color: rgb(0, 255, 255);&quot;&gt;start_date&lt;/span&gt;&lt;div&gt;2025-04-10&lt;/div&gt;" style="text;strokeColor=none;align=center;fillColor=none;html=1;verticalAlign=middle;whiteSpace=wrap;rounded=0;" vertex="1" parent="1">
          <mxGeometry x="435" y="930" width="80" height="30" as="geometry" />
        </mxCell>
        <mxCell id="vh4vlK0gLDQnyJQ0xDr6-137" value="&lt;span style=&quot;background-color: rgb(255, 51, 255);&quot;&gt;&lt;font color=&quot;#ffffff&quot;&gt;&lt;b&gt;DAG코드 작성일&lt;/b&gt;&lt;/font&gt;&lt;/span&gt;" style="text;strokeColor=none;align=center;fillColor=none;html=1;verticalAlign=middle;whiteSpace=wrap;rounded=0;" vertex="1" parent="1">
          <mxGeometry x="72" y="910" width="100" height="20" as="geometry" />
        </mxCell>
        <mxCell id="vh4vlK0gLDQnyJQ0xDr6-139" value="&lt;div style=&quot;font-size: 11px;&quot;&gt;&lt;font style=&quot;&quot; color=&quot;#1a1a1a&quot;&gt;이때는 DAG RUN 없음&lt;/font&gt;&lt;/div&gt;&lt;div style=&quot;font-size: 11px;&quot;&gt;&lt;font style=&quot;&quot; color=&quot;#1a1a1a&quot;&gt;start_date : 2025-04-08&lt;/font&gt;&lt;/div&gt;&lt;div style=&quot;font-size: 11px;&quot;&gt;&lt;font color=&quot;#1a1a1a&quot;&gt;execution_date : 2025-04-07&lt;/font&gt;&lt;/div&gt;&lt;div style=&quot;font-size: 11px;&quot;&gt;&lt;font color=&quot;#1a1a1a&quot;&gt;(execution_date &amp;lt;&amp;nbsp;&lt;/font&gt;&lt;span style=&quot;color: rgb(26, 26, 26); background-color: initial;&quot;&gt;start_date)&lt;/span&gt;&lt;/div&gt;" style="rounded=1;whiteSpace=wrap;html=1;sketch=1;curveFitting=1;jiggle=2;fillColor=#f8cecc;strokeColor=#b85450;" vertex="1" parent="1">
          <mxGeometry x="136.5" y="990" width="159" height="70" as="geometry" />
        </mxCell>
        <mxCell id="vh4vlK0gLDQnyJQ0xDr6-140" value="&lt;div style=&quot;font-size: 11px;&quot;&gt;&lt;font style=&quot;&quot; color=&quot;#1a1a1a&quot;&gt;이때는 DAG RUN 없음&lt;/font&gt;&lt;/div&gt;&lt;div style=&quot;font-size: 11px;&quot;&gt;&lt;font style=&quot;&quot; color=&quot;#1a1a1a&quot;&gt;start_date : 2025-04-09&lt;/font&gt;&lt;/div&gt;&lt;div style=&quot;font-size: 11px;&quot;&gt;&lt;font color=&quot;#1a1a1a&quot;&gt;execution_date : 2025-04-08&lt;/font&gt;&lt;/div&gt;&lt;div style=&quot;font-size: 11px;&quot;&gt;&lt;font color=&quot;#1a1a1a&quot;&gt;(execution_date &amp;lt;&amp;nbsp;&lt;/font&gt;&lt;span style=&quot;color: rgb(26, 26, 26); background-color: initial;&quot;&gt;start_date)&lt;/span&gt;&lt;/div&gt;" style="rounded=1;whiteSpace=wrap;html=1;sketch=1;curveFitting=1;jiggle=2;fillColor=#f8cecc;strokeColor=#b85450;" vertex="1" parent="1">
          <mxGeometry x="314" y="990" width="159" height="70" as="geometry" />
        </mxCell>
        <mxCell id="vh4vlK0gLDQnyJQ0xDr6-141" value="" style="endArrow=none;dashed=1;html=1;dashPattern=1 3;strokeWidth=2;rounded=0;entryX=0.274;entryY=0.182;entryDx=0;entryDy=0;entryPerimeter=0;" edge="1" parent="1" target="vh4vlK0gLDQnyJQ0xDr6-52">
          <mxGeometry width="50" height="50" relative="1" as="geometry">
            <mxPoint x="241.70999999999998" y="1360" as="sourcePoint" />
            <mxPoint x="242" y="1240" as="targetPoint" />
          </mxGeometry>
        </mxCell>
        <mxCell id="vh4vlK0gLDQnyJQ0xDr6-142" value="" style="ellipse;whiteSpace=wrap;html=1;aspect=fixed;" vertex="1" parent="1">
          <mxGeometry x="237" y="1355" width="10" height="10" as="geometry" />
        </mxCell>
        <mxCell id="vh4vlK0gLDQnyJQ0xDr6-143" value="&lt;span style=&quot;background-color: rgb(255, 51, 255);&quot;&gt;&lt;font color=&quot;#ffffff&quot;&gt;&lt;b&gt;DAG코드 작성일&lt;/b&gt;&lt;/font&gt;&lt;/span&gt;" style="text;strokeColor=none;align=center;fillColor=none;html=1;verticalAlign=middle;whiteSpace=wrap;rounded=0;" vertex="1" parent="1">
          <mxGeometry x="191" y="1185" width="100" height="20" as="geometry" />
        </mxCell>
        <mxCell id="vh4vlK0gLDQnyJQ0xDr6-144" value="&lt;div&gt;2025-04-08&lt;/div&gt;" style="text;strokeColor=none;align=center;fillColor=none;html=1;verticalAlign=middle;whiteSpace=wrap;rounded=0;" vertex="1" parent="1">
          <mxGeometry x="201" y="1200" width="80" height="20" as="geometry" />
        </mxCell>
        <mxCell id="vh4vlK0gLDQnyJQ0xDr6-145" value="&lt;div style=&quot;font-size: 11px;&quot;&gt;&lt;font style=&quot;&quot; color=&quot;#1a1a1a&quot;&gt;이때는 DAG RUN 없음&lt;/font&gt;&lt;/div&gt;&lt;div style=&quot;font-size: 11px;&quot;&gt;&lt;font style=&quot;&quot; color=&quot;#1a1a1a&quot;&gt;start_date : 2025-04-10&lt;/font&gt;&lt;/div&gt;&lt;div style=&quot;font-size: 11px;&quot;&gt;&lt;font color=&quot;#1a1a1a&quot;&gt;execution_date : 2025-04-09&lt;/font&gt;&lt;/div&gt;&lt;div style=&quot;font-size: 11px;&quot;&gt;&lt;font color=&quot;#1a1a1a&quot;&gt;(execution_date &amp;lt;&amp;nbsp;&lt;/font&gt;&lt;span style=&quot;color: rgb(26, 26, 26); background-color: initial;&quot;&gt;start_date)&lt;/span&gt;&lt;/div&gt;" style="rounded=1;whiteSpace=wrap;html=1;sketch=1;curveFitting=1;jiggle=2;fillColor=#f8cecc;strokeColor=#b85450;" vertex="1" parent="1">
          <mxGeometry x="490" y="990" width="159" height="70" as="geometry" />
        </mxCell>
        <mxCell id="vh4vlK0gLDQnyJQ0xDr6-146" value="" style="shape=flexArrow;endArrow=classic;startArrow=classic;html=1;rounded=0;width=5.833333333333334;startSize=2.7750000000000004;startWidth=10.972222222222221;endWidth=10.972222222222221;endSize=4.441666666666667;fillColor=#dae8fc;strokeColor=#6c8ebf;" edge="1" parent="1">
          <mxGeometry width="100" height="100" relative="1" as="geometry">
            <mxPoint x="160" y="416" as="sourcePoint" />
            <mxPoint x="320" y="416" as="targetPoint" />
          </mxGeometry>
        </mxCell>
        <mxCell id="vh4vlK0gLDQnyJQ0xDr6-148" value="" style="curved=1;endArrow=classic;html=1;rounded=0;entryX=0.5;entryY=0;entryDx=0;entryDy=0;" edge="1" parent="1" target="vh4vlK0gLDQnyJQ0xDr6-12">
          <mxGeometry width="50" height="50" relative="1" as="geometry">
            <mxPoint x="320" y="420" as="sourcePoint" />
            <mxPoint x="335" y="230" as="targetPoint" />
            <Array as="points">
              <mxPoint x="360" y="390" />
            </Array>
          </mxGeometry>
        </mxCell>
        <mxCell id="vh4vlK0gLDQnyJQ0xDr6-149" value="&lt;font style=&quot;font-size: 8px;&quot;&gt;한 주기 전 시점~&lt;/font&gt;&lt;div&gt;&lt;font style=&quot;font-size: 8px;&quot;&gt;이번 시점까지를 실행한다!&lt;/font&gt;&lt;/div&gt;" style="text;strokeColor=none;align=center;fillColor=none;html=1;verticalAlign=middle;whiteSpace=wrap;rounded=0;rotation=-30;" vertex="1" parent="1">
          <mxGeometry x="337" y="380" width="74" height="10" as="geometry" />
        </mxCell>
      </root>
    </mxGraphModel>
  </diagram>
</mxfile>
